<svg width="31" height="42" viewBox="0 0 31 42" fill="none" xmlns="http://www.w3.org/2000/svg">
<path fill-rule="evenodd" clip-rule="evenodd" d="M3.45827e-07 40.6866V5.24988C3.45827e-07 3.85753 0.544344 2.5222 1.51328 1.53765C2.48222 0.553111 3.79638 0 5.16667 0L25.8333 0C27.2036 0 28.5178 0.553111 29.4867 1.53765C30.4557 2.5222 31 3.85753 31 5.24988V40.6866C31.0002 40.9145 30.9419 41.1385 30.831 41.3366C30.7201 41.5347 30.5603 41.7 30.3674 41.8163C30.1745 41.9326 29.9551 41.9958 29.7308 41.9998C29.5065 42.0038 29.2851 41.9483 29.0883 41.8389L15.5 34.3053L1.91167 41.8389C1.71489 41.9483 1.49347 42.0038 1.2692 41.9998C1.04494 41.9958 0.825548 41.9326 0.632637 41.8163C0.439726 41.7 0.279942 41.5347 0.169013 41.3366C0.058085 41.1385 -0.000163767 40.9145 3.45827e-07 40.6866ZM16.7917 11.8122C16.7917 11.4641 16.6556 11.1303 16.4133 10.8842C16.1711 10.638 15.8426 10.4998 15.5 10.4998C15.1574 10.4998 14.8289 10.638 14.5867 10.8842C14.3444 11.1303 14.2083 11.4641 14.2083 11.8122V15.7496H10.3333C9.99076 15.7496 9.66222 15.8879 9.41999 16.1341C9.17775 16.3802 9.04167 16.714 9.04167 17.0621C9.04167 17.4102 9.17775 17.744 9.41999 17.9902C9.66222 18.2363 9.99076 18.3746 10.3333 18.3746H14.2083V22.312C14.2083 22.6601 14.3444 22.9939 14.5867 23.24C14.8289 23.4862 15.1574 23.6245 15.5 23.6245C15.8426 23.6245 16.1711 23.4862 16.4133 23.24C16.6556 22.9939 16.7917 22.6601 16.7917 22.312V18.3746H20.6667C21.0092 18.3746 21.3378 18.2363 21.58 17.9902C21.8222 17.744 21.9583 17.4102 21.9583 17.0621C21.9583 16.714 21.8222 16.3802 21.58 16.1341C21.3378 15.8879 21.0092 15.7496 20.6667 15.7496H16.7917V11.8122Z" fill="white"/>
</svg>
