<svg width="26" height="24" viewBox="0 0 26 24" fill="none" xmlns="http://www.w3.org/2000/svg">
<path fill-rule="evenodd" clip-rule="evenodd" d="M2.88222 2.534C1.97315 3.34854 1.25048 4.31832 0.755837 5.38752C0.26119 6.45672 0.00433277 7.60421 5.43444e-05 8.76393C-0.00422408 9.92365 0.244161 11.0727 0.730908 12.1449C1.21765 13.217 1.93315 14.1912 2.83619 15.0113C3.73924 15.8313 4.81199 16.481 5.99269 16.923C7.17339 17.3651 8.43871 17.5906 9.71581 17.5867C10.9929 17.5828 12.2565 17.3496 13.4339 16.9004C14.6114 16.4512 15.6793 15.795 16.5763 14.9695C18.3721 13.3166 19.3752 11.0859 19.3667 8.76393C19.3581 6.442 18.3386 4.21739 16.5305 2.57552C14.7225 0.933661 12.2727 0.0078282 9.71581 4.94141e-05C7.15887 -0.00772937 4.70233 0.903177 2.88222 2.534ZM14.0868 12.7088C12.9311 13.7582 11.3636 14.3478 9.72924 14.3478C8.09486 14.3478 6.52741 13.7582 5.37173 12.7088C4.21604 11.6593 3.56679 10.2359 3.56679 8.75173C3.56679 7.26756 4.21604 5.84417 5.37173 4.7947C6.52741 3.74523 8.09486 3.15565 9.72924 3.15565C11.3636 3.15565 12.9311 3.74523 14.0868 4.7947C15.2424 5.84417 15.8917 7.26756 15.8917 8.75173C15.8917 10.2359 15.2424 11.6593 14.0868 12.7088Z" fill="white"/>
<path d="M14.7082 16.6662C14.4629 16.4434 14.2683 16.179 14.1355 15.8879C14.0028 15.5969 13.9344 15.2849 13.9344 14.9699C13.9344 14.6549 14.0028 14.3429 14.1355 14.0518C14.2683 13.7608 14.4629 13.4963 14.7082 13.2736C14.9535 13.0508 15.2447 12.8741 15.5652 12.7535C15.8858 12.633 16.2293 12.5709 16.5762 12.5709C16.9231 12.5709 17.2666 12.633 17.5872 12.7535C17.9077 12.8741 18.1989 13.0508 18.4442 13.2736L24.6679 18.9269C24.9202 19.1481 25.1214 19.4128 25.2598 19.7054C25.3982 19.9979 25.471 20.3126 25.4741 20.6311C25.4771 20.9495 25.4103 21.2653 25.2775 21.56C25.1447 21.8547 24.9486 22.1225 24.7007 22.3477C24.4527 22.5729 24.1579 22.7509 23.8333 22.8715C23.5087 22.9921 23.161 23.0528 22.8103 23.05C22.4597 23.0472 22.1131 22.9811 21.7909 22.8554C21.4687 22.7297 21.1773 22.547 20.9337 22.318L14.7082 16.6662Z" fill="white"/>
</svg>
