<svg width="30" height="37" viewBox="0 0 30 37" fill="none" xmlns="http://www.w3.org/2000/svg">
<path d="M3.34672e-07 35.8236C-0.000158485 36.0242 0.0562113 36.2215 0.163561 36.3959C0.270912 36.5703 0.425541 36.7159 0.612229 36.8183C0.798917 36.9207 1.01123 36.9763 1.22826 36.9798C1.4453 36.9833 1.65957 36.9345 1.85 36.8382L15 30.205L28.15 36.8382C28.3404 36.9345 28.5547 36.9833 28.7717 36.9798C28.9888 36.9763 29.2011 36.9207 29.3878 36.8183C29.5745 36.7159 29.7291 36.5703 29.8364 36.3959C29.9438 36.2215 30.0002 36.0242 30 35.8236V4.62239C30 3.39646 29.4732 2.22074 28.5355 1.35387C27.5979 0.487001 26.3261 0 25 0L5 0C3.67392 0 2.40215 0.487001 1.46447 1.35387C0.526784 2.22074 3.34672e-07 3.39646 3.34672e-07 4.62239V35.8236ZM15 10.1924C18.4675 6.89892 27.135 12.6654 15 20.0774C2.865 12.6654 11.5325 6.90123 15 10.197V10.1924Z" fill="white"/>
</svg>
